<svg xmlns="http://www.w3.org/2000/svg" viewBox="0 0 753.81 753.81"><defs><style>.cls-1{fill:#e8f0fc;stroke-width:4px;}.cls-1,.cls-3{stroke:#000;stroke-miterlimit:10;}.cls-2{fill:none;}.cls-3{fill:#90f6b2;stroke-width:3px;}</style></defs><title>Constructiveness</title><g id="Layer_2" data-name="Layer 2"><g id="Layer_1-2" data-name="Layer 1"><g id="Layer_1-2-2" data-name="Layer 1-2"><path class="cls-1" d="M376.9,376.9,111.8,111.8Q221.61,2,376.9,2Z"/><path class="cls-1" d="M376.9,376.9H2Q2,221.61,111.81,111.8Z"/><path class="cls-1" d="M376.9,376.9,111.81,642Q2,532.19,2,376.9Z"/><path class="cls-1" d="M376.9,376.9V751.8Q221.61,751.8,111.8,642Z"/><path class="cls-1" d="M376.9,376.9,642,642Q532.19,751.81,376.9,751.81Z"/><path class="cls-1" d="M376.9,376.9H751.8q0,155.29-109.8,265.1Z"/><path class="cls-1" d="M376.9,376.9,642,111.81Q751.81,221.61,751.81,376.9Z"/><path class="cls-1" d="M376.9,376.9V2Q532.19,2,642,111.81Z"/></g><g id="Layer_2-2" data-name="Layer 2"><g id="Layer_1-2-3" data-name="Layer 1-2"><path class="cls-2" d="M376.72,377.62,111.63,112.5Q221.43,2.72,376.72,2.72Z"/><path class="cls-2" d="M376.72,377.62H1.82q0-155.29,109.81-265.12Z"/><path class="cls-2" d="M376.72,377.62l-265.1,265.1Q1.82,532.91,1.82,377.62Z"/><path class="cls-2" d="M376.72,377.62V752.5q-155.29,0-265.1-109.81Z"/><path class="cls-2" d="M376.72,377.62l265.1,265.1Q532,752.5,376.72,752.5Z"/><path class="cls-2" d="M376.72,377.62h374.9q0,155.29-109.81,265.1Z"/><path class="cls-2" d="M376.72,377.62,641.82,112.5Q751.63,222.31,751.63,377.6Z"/><path class="cls-2" d="M376.72,377.62V2.72Q532,2.72,641.82,112.5Z"/><path class="cls-2" d="M377.09,376.9,112,111.8Q221.82,2,377.09,2Z"/><path class="cls-3" d="M377.09,376.9V2q155.29,0,265.1,109.81Z"/><path class="cls-2" d="M377.09,376.9l265.1-265.1Q752,221.61,752,376.9Z"/><path class="cls-2" d="M377.09,376.9H752Q752,532.19,642.18,642Z"/><path class="cls-2" d="M377.09,376.9,642.19,642Q532.38,751.81,377.09,751.81Z"/><path class="cls-2" d="M377.09,376.9V751.8Q221.8,751.8,112,642Z"/><path class="cls-2" d="M377.09,376.9,112,642Q2.18,532.19,2.18,376.9Z"/><path class="cls-2" d="M377.09,376.9H2.18Q2.18,221.61,112,111.8Z"/><path class="cls-2" d="M376.72,377.62,176.41,493.28c-63.87-110.63-26-252.09,84.66-316,36.84-21.27,73.11-31,115.65-31Z"/><path class="cls-2" d="M376.72,377.62,577,493.28C513.17,603.91,371.7,641.82,261,577.94c-36.84-21.27-63.39-47.82-84.66-84.66Z"/><path class="cls-2" d="M376.72,377.62V146.32c127.75,0,231.3,103.56,231.3,231.3,0,42.54-9.72,78.81-31,115.65Z"/><rect class="cls-2" x="388.81" y="189.48" width="73.69" height="82.06" rx="34.48" ry="34.48" transform="translate(-0.4 0.74) rotate(-0.1)"/><path class="cls-2" d="M503.64,354.3h0c-.09-47.62-35.14-86.52-77.91-86.45h0c-42.76.08-77.68,39.1-77.6,86.73h0Z"/><rect class="cls-2" x="476.38" y="228.69" width="73.69" height="82.06" rx="34.48" ry="34.48" transform="translate(-0.47 0.9) rotate(-0.1)"/><path class="cls-2" d="M591.21,393.5h0C591.12,345.88,556.07,307,513.3,307h0c-42.76.08-77.68,39.1-77.6,86.73h0Z"/><rect class="cls-2" x="274.3" y="436.08" width="205.57" height="118.62" rx="52.47" ry="52.47"/><polygon class="cls-2" points="328.81 541.03 356.17 541.03 342.49 561.93 328.81 582.83 315.13 561.93 301.45 541.03 328.81 541.03"/><rect class="cls-2" x="227.29" y="212.71" width="68.25" height="81.6" rx="31.91" ry="31.91" transform="translate(-0.44 0.46) rotate(-0.1)"/><path class="cls-2" d="M333.67,376.64h0c-.09-47.36-32.56-86-72.17-86h0c-39.61.07-71.95,38.88-71.86,86.24h0Z"/></g></g></g></g></svg>