<?xml version="1.0" standalone="no"?>
<!DOCTYPE svg PUBLIC "-//W3C//DTD SVG 20010904//EN"
 "http://www.w3.org/TR/2001/REC-SVG-20010904/DTD/svg10.dtd">
<svg version="1.0" xmlns="http://www.w3.org/2000/svg"
 width="1024.000000pt" height="1024.000000pt" viewBox="0 0 1024.000000 1024.000000"
 preserveAspectRatio="xMidYMid meet">

<g transform="translate(0.000000,1024.000000) scale(0.100000,-0.100000)"
fill="#000000" stroke="none">
<path d="M4915 10213 c-1137 -39 -2249 -473 -3120 -1219 -262 -224 -436 -399
-613 -616 -477 -587 -798 -1195 -993 -1882 -129 -457 -197 -990 -185 -1461 13
-557 90 -1015 252 -1510 360 -1095 1040 -1981 2011 -2619 1192 -782 2672
-1034 4060 -691 1368 339 2530 1215 3227 2433 365 637 582 1342 647 2097 6 77
12 255 12 395 0 349 -26 628 -89 955 -237 1227 -929 2330 -1941 3091 -727 547
-1600 892 -2523 998 -144 17 -505 37 -605 34 -33 -1 -96 -3 -140 -5z m39 -535
c8 -489 29 -3977 24 -4092 l-3 -90 -1680 1473 c-924 811 -1697 1490 -1718
1510 l-38 37 143 136 c366 348 688 585 1105 812 610 331 1363 543 2058 579 33
2 70 4 81 5 22 2 22 2 28 -370z m666 347 c900 -93 1759 -430 2472 -972 126
-95 335 -272 383 -323 l30 -32 -31 -26 c-17 -15 -773 -733 -1679 -1597 -906
-863 -1652 -1571 -1657 -1573 -4 -2 -8 74 -8 170 0 95 -7 1026 -15 2068 -8
1042 -15 1989 -15 2104 l0 209 187 -7 c103 -3 253 -13 333 -21z m3253 -1709
c568 -660 959 -1497 1106 -2366 32 -187 68 -516 58 -526 -5 -5 -1039 -14
-4339 -36 -251 -2 -454 1 -451 5 3 5 761 728 1686 1609 l1681 1600 90 -98 c50
-54 126 -138 169 -188z m-5625 -1501 l1630 -1430 -72 -2 c-66 -2 -4291 -33
-4508 -33 l-98 0 0 60 c0 183 65 612 135 896 185 747 564 1480 1051 2031 l55
63 89 -77 c49 -43 822 -721 1718 -1508z m6799 -1797 c-7 -287 -24 -463 -68
-728 -78 -465 -224 -914 -438 -1347 -149 -302 -327 -589 -517 -832 l-79 -101
-30 29 c-22 21 -3612 3169 -3634 3188 -2 1 -2 5 0 7 4 4 3436 31 4333 34 l439
2 -6 -252z m-5197 214 c0 -9 -3456 -3304 -3471 -3310 -17 -7 -234 275 -366
473 -384 578 -637 1215 -752 1895 -40 238 -61 445 -68 698 -6 204 -5 212 13
213 10 0 1056 9 2324 18 1268 10 2308 19 2313 20 4 0 7 -3 7 -7z m2125 -1687
c990 -867 1817 -1594 1838 -1614 l37 -36 -127 -137 c-887 -951 -2092 -1504
-3404 -1564 l-147 -7 -6 464 c-3 255 -11 1225 -16 2154 -5 930 -12 1841 -15
2025 l-6 334 23 -20 c13 -12 833 -731 1823 -1599z m-1985 1268 c0 -181 7
-1178 15 -2218 8 -1039 15 -2006 15 -2149 l0 -258 -122 6 c-718 39 -1362 207
-1982 518 -487 244 -908 548 -1293 937 -79 79 -143 148 -142 155 1 12 3489
3335 3502 3336 4 0 7 -147 7 -327z"/>
</g>
</svg>
