<svg xmlns="http://www.w3.org/2000/svg" viewBox="0 0 753.81 753.81"><defs><style>.cls-1{fill:#e8f0fc;stroke-width:4px;}.cls-1,.cls-3{stroke:#000;stroke-miterlimit:10;}.cls-2{fill:none;}.cls-3{fill:#e3b7e8;stroke-width:3px;}</style></defs><title>Improper</title><g id="Layer_2" data-name="Layer 2"><g id="Layer_1-2" data-name="Layer 1"><g id="Layer_2-2" data-name="Layer 2"><g id="Layer_1-2-2" data-name="Layer 1-2"><g id="Layer_1-2-2-2" data-name="Layer 1-2-2"><path class="cls-1" d="M376.9,376.9,111.8,111.8Q221.61,2,376.9,2Z"/><path class="cls-1" d="M376.9,376.9H2Q2,221.61,111.81,111.8Z"/><path class="cls-1" d="M376.9,376.9,111.81,642Q2,532.19,2,376.9Z"/><path class="cls-1" d="M376.9,376.9V751.8q-155.29,0-265.1-109.8Z"/><path class="cls-1" d="M376.9,376.9,642,642Q532.19,751.81,376.9,751.81Z"/><path class="cls-1" d="M376.9,376.9H751.8Q751.8,532.19,642,642Z"/><path class="cls-1" d="M376.9,376.9,642,111.81Q751.81,221.61,751.81,376.9Z"/><path class="cls-1" d="M376.9,376.9V2Q532.19,2,642,111.81Z"/></g></g></g><g id="Layer_2-3" data-name="Layer 2"><g id="Layer_1-2-3" data-name="Layer 1-2"><path class="cls-2" d="M376.67,377.25l-265.1-265.1Q221.43,2.35,376.67,2.35Z"/><path class="cls-2" d="M376.67,377.25H1.81q0-155.29,109.81-265.1Z"/><path class="cls-2" d="M376.67,377.25l-265.1,265.1Q1.81,532.54,1.81,377.25Z"/><path class="cls-2" d="M376.67,377.25v374.9q-155.29,0-265.1-109.81Z"/><path class="cls-2" d="M376.67,377.25l265.1,265.1Q532,752.17,376.67,752.17Z"/><path class="cls-2" d="M376.67,377.25h374.9q0,155.29-109.81,265.1Z"/><path class="cls-2" d="M376.67,377.25l265.1-265.1Q751.58,222,751.58,377.25Z"/><path class="cls-2" d="M376.67,377.25V2.35q155.29,0,265.1,109.81Z"/><path class="cls-2" d="M377.07,376.53,112,111.43Q221.79,1.63,377.07,1.63Z"/><path class="cls-2" d="M377.07,376.53V1.63q155.29,0,265.1,109.81Z"/><path class="cls-2" d="M377.07,376.53l265.1-265.1Q752,221.24,752,376.53Z"/><path class="cls-2" d="M377.07,376.53H752q0,155.29-109.81,265.1Z"/><path class="cls-2" d="M377.07,376.53l265.1,265.1Q532.36,751.45,377.07,751.44Z"/><path class="cls-2" d="M377.07,376.53v374.9q-155.29,0-265.1-109.81Z"/><path class="cls-3" d="M377.07,376.53,112,641.63Q2.17,531.82,2.17,376.53Z"/><path class="cls-2" d="M377.07,376.53H2.17q0-155.29,109.81-265.1Z"/><path class="cls-2" d="M376.67,377.25,176.39,492.91c-63.87-110.63-26-252.09,84.66-316,36.84-21.27,73.11-31,115.65-31Z"/><path class="cls-2" d="M376.67,377.25,577,492.91c-63.87,110.63-205.34,148.54-316,84.66-36.84-21.27-63.39-47.82-84.66-84.66Z"/><path class="cls-2" d="M376.67,377.25V146C504.42,146,608,249.51,608,377.25c0,42.54-9.72,78.81-31,115.65Z"/><rect class="cls-2" x="388.8" y="189.12" width="73.69" height="82.06" rx="34.48" ry="34.48" transform="translate(-0.4 0.74) rotate(-0.1)"/><path class="cls-2" d="M503.67,353.93h0c-.09-47.62-35.14-86.52-77.91-86.45h0c-42.76.08-77.68,39.1-77.6,86.73h0Z"/><rect class="cls-2" x="476.37" y="228.32" width="73.69" height="82.06" rx="34.48" ry="34.48" transform="translate(-0.47 0.9) rotate(-0.1)"/><path class="cls-2" d="M591.21,393.14h0c-.09-47.62-35.14-86.52-77.91-86.45h0c-42.76.08-77.68,39.1-77.6,86.73h0Z"/><rect class="cls-2" x="274.29" y="435.71" width="205.57" height="118.62" rx="52.47" ry="52.47"/><polygon class="cls-2" points="328.81 540.66 356.17 540.66 342.49 561.57 328.81 582.47 315.13 561.57 301.44 540.66 328.81 540.66"/><rect class="cls-2" x="227.28" y="212.34" width="68.25" height="81.6" rx="31.91" ry="31.91" transform="translate(-0.44 0.46) rotate(-0.1)"/><path class="cls-2" d="M333.67,376.27h0c-.09-47.36-32.56-86-72.17-86h0c-39.61.07-71.95,38.88-71.86,86.24h0Z"/></g></g></g></g></svg>