<svg xmlns="http://www.w3.org/2000/svg" viewBox="0 0 750.17 752.03"><defs><style>.cls-1{fill:none;}.cls-2{fill:#90f6b2;stroke:#000;stroke-miterlimit:10;stroke-width:3px;}</style></defs><title>Constructiveness</title><g id="Layer_2" data-name="Layer 2"><g id="Layer_1-2" data-name="Layer 1"><path class="cls-1" d="M374.9,377.12,109.81,112Q219.61,2.22,374.9,2.22Z"/><path class="cls-1" d="M374.9,377.12H0Q0,221.83,109.81,112Z"/><path class="cls-1" d="M374.9,377.12l-265.1,265.1Q0,532.41,0,377.12Z"/><path class="cls-1" d="M374.9,377.12V752q-155.29,0-265.1-109.81Z"/><path class="cls-1" d="M374.9,377.12,640,642.22Q530.19,752,374.9,752Z"/><path class="cls-1" d="M374.9,377.12h374.9q0,155.29-109.81,265.1Z"/><path class="cls-1" d="M374.9,377.12,640,112q109.81,109.81,109.81,265.1Z"/><path class="cls-1" d="M374.9,377.12V2.22Q530.19,2.22,640,112Z"/><path class="cls-1" d="M375.27,376.4l-265.1-265.1Q220,1.5,375.27,1.5Z"/><path class="cls-2" d="M375.27,376.4V1.5q155.29,0,265.1,109.81Z"/><path class="cls-1" d="M375.27,376.4l265.1-265.1Q750.17,221.11,750.17,376.4Z"/><path class="cls-1" d="M375.27,376.4h374.9q0,155.29-109.81,265.1Z"/><path class="cls-1" d="M375.27,376.4l265.1,265.1Q530.56,751.31,375.27,751.31Z"/><path class="cls-1" d="M375.27,376.4v374.9q-155.29,0-265.1-109.81Z"/><path class="cls-1" d="M375.27,376.4,110.17,641.5Q.36,531.69.36,376.4Z"/><path class="cls-1" d="M375.27,376.4H.36q0-155.29,109.81-265.1Z"/><path class="cls-1" d="M374.9,377.12,174.59,492.78c-63.87-110.63-26-252.09,84.66-316,36.84-21.27,73.11-31,115.65-31Z"/><path class="cls-1" d="M374.9,377.12,575.22,492.78c-63.87,110.63-205.34,148.54-316,84.66-36.84-21.27-63.39-47.82-84.66-84.66Z"/><path class="cls-1" d="M374.9,377.12V145.82c127.75,0,231.3,103.56,231.3,231.3,0,42.54-9.72,78.81-31,115.65Z"/><rect class="cls-1" x="387" y="188.96" width="73.69" height="82.06" rx="34.48" ry="34.48" transform="translate(-0.41 0.76) rotate(-0.1)"/><path class="cls-1" d="M501.82,353.8h0c-.09-47.62-35.14-86.52-77.91-86.45h0c-42.76.08-77.68,39.1-77.6,86.73h0Z"/><rect class="cls-1" x="474.57" y="228.16" width="73.69" height="82.06" rx="34.48" ry="34.48" transform="translate(-0.48 0.92) rotate(-0.1)"/><path class="cls-1" d="M589.39,393h0c-.09-47.62-35.14-86.52-77.91-86.45h0c-42.76.08-77.68,39.1-77.6,86.73h0Z"/><rect class="cls-1" x="272.48" y="435.58" width="205.57" height="118.62" rx="52.47" ry="52.47"/><polygon class="cls-1" points="326.99 540.53 354.35 540.53 340.67 561.43 326.99 582.33 313.31 561.43 299.63 540.53 326.99 540.53"/><rect class="cls-1" x="225.49" y="212.19" width="68.25" height="81.6" rx="31.91" ry="31.91" transform="translate(-0.46 0.47) rotate(-0.1)"/><path class="cls-1" d="M331.85,376.14h0c-.09-47.36-32.56-86-72.17-86h0c-39.61.07-71.95,38.88-71.86,86.24h0Z"/></g></g></svg>