<svg xmlns="http://www.w3.org/2000/svg" viewBox="0 0 753.81 753.81"><defs><style>.cls-1{fill:#b7b7b7;stroke:#000;stroke-miterlimit:10;stroke-width:4px;}</style></defs><title>Gray_1</title><g id="Layer_2" data-name="Layer 2"><g id="Layer_1-2" data-name="Layer 1"><path class="cls-1" d="M376.9,376.9l-265.1-265.1Q221.61,2,376.9,2Z"/><path class="cls-1" d="M376.9,376.9H2q0-155.29,109.81-265.1Z"/><path class="cls-1" d="M376.9,376.9,111.81,642Q2,532.19,2,376.9Z"/><path class="cls-1" d="M376.9,376.9v374.9q-155.29,0-265.1-109.81Z"/><path class="cls-1" d="M376.9,376.9,642,642Q532.19,751.81,376.9,751.81Z"/><path class="cls-1" d="M376.9,376.9h374.9Q751.81,532.19,642,642Z"/><path class="cls-1" d="M376.9,376.9,642,111.81Q751.81,221.61,751.81,376.9Z"/><path class="cls-1" d="M376.9,376.9V2Q532.19,2,642,111.81Z"/></g></g></svg>