<svg xmlns="http://www.w3.org/2000/svg" viewBox="0 0 753.81 753.81"><defs><style>.cls-1{fill:#e8f0fc;stroke:#000;stroke-miterlimit:10;stroke-width:4px;}</style></defs><title>NewBG</title><g id="Layer_2" data-name="Layer 2"><g id="Layer_1-2" data-name="Layer 1"><g id="Layer_1-2-2" data-name="Layer 1-2"><path class="cls-1" d="M376.9,376.9,111.8,111.8Q221.61,2,376.9,2Z"/><path class="cls-1" d="M376.9,376.9H2Q2,221.61,111.81,111.8Z"/><path class="cls-1" d="M376.9,376.9,111.81,642Q2,532.19,2,376.9Z"/><path class="cls-1" d="M376.9,376.9V751.8Q221.61,751.8,111.8,642Z"/><path class="cls-1" d="M376.9,376.9,642,642Q532.19,751.81,376.9,751.81Z"/><path class="cls-1" d="M376.9,376.9H751.8q0,155.29-109.8,265.1Z"/><path class="cls-1" d="M376.9,376.9,642,111.81Q751.81,221.61,751.81,376.9Z"/><path class="cls-1" d="M376.9,376.9V2Q532.19,2,642,111.81Z"/></g></g></g></svg>