<svg xmlns="http://www.w3.org/2000/svg" viewBox="0 0 750.17 751.31"><defs><style>.cls-1{fill:none;}.cls-2{fill:#1795ff;stroke:#000;stroke-miterlimit:10;stroke-width:3px;}</style></defs><title>Mockery</title><g id="Layer_2" data-name="Layer 2"><g id="Layer_1-2" data-name="Layer 1"><path class="cls-1" d="M374.9,375.62l-265.1-265.1Q219.61.72,374.9.72Z"/><path class="cls-1" d="M374.9,375.62H0q0-155.29,109.81-265.1Z"/><path class="cls-1" d="M374.9,375.62l-265.1,265.1Q0,530.91,0,375.62Z"/><path class="cls-1" d="M374.9,375.62v374.9q-155.29,0-265.1-109.81Z"/><path class="cls-1" d="M374.9,375.62,640,640.72Q530.19,750.53,374.9,750.53Z"/><path class="cls-1" d="M374.9,375.62h374.9q0,155.29-109.81,265.1Z"/><path class="cls-1" d="M374.9,375.62,640,110.53q109.81,109.81,109.81,265.1Z"/><path class="cls-1" d="M374.9,375.62V.72Q530.19.72,640,110.53Z"/><path class="cls-1" d="M375.27,374.9l-265.1-265.1Q220,0,375.27,0Z"/><path class="cls-1" d="M375.27,374.9V0q155.29,0,265.1,109.81Z"/><path class="cls-1" d="M375.27,374.9l265.1-265.1Q750.17,219.61,750.17,374.9Z"/><path class="cls-1" d="M375.27,374.9h374.9q0,155.29-109.81,265.1Z"/><path class="cls-2" d="M375.27,374.9,640.36,640Q530.56,749.81,375.27,749.81Z"/><path class="cls-1" d="M375.27,374.9v374.9Q220,749.81,110.17,640Z"/><path class="cls-1" d="M375.27,374.9,110.17,640Q.36,530.19.36,374.9Z"/><path class="cls-1" d="M375.27,374.9H.36q0-155.29,109.81-265.1Z"/><path class="cls-1" d="M374.9,375.62,174.59,491.28c-63.87-110.63-26-252.09,84.66-316,36.84-21.27,73.11-31,115.65-31Z"/><path class="cls-1" d="M374.9,375.62,575.22,491.28c-63.87,110.63-205.34,148.54-316,84.66-36.84-21.27-63.39-47.82-84.66-84.66Z"/><path class="cls-1" d="M374.9,375.62V144.32c127.75,0,231.3,103.56,231.3,231.3,0,42.54-9.72,78.81-31,115.65Z"/><rect class="cls-1" x="387" y="187.46" width="73.69" height="82.06" rx="34.48" ry="34.48" transform="translate(-0.41 0.76) rotate(-0.1)"/><path class="cls-1" d="M501.82,352.3h0c-.09-47.62-35.14-86.52-77.91-86.45h0c-42.76.08-77.68,39.1-77.6,86.73h0Z"/><rect class="cls-1" x="474.57" y="226.66" width="73.69" height="82.06" rx="34.48" ry="34.48" transform="translate(-0.48 0.92) rotate(-0.1)"/><path class="cls-1" d="M589.39,391.51h0c-.09-47.62-35.14-86.52-77.91-86.45h0c-42.76.08-77.68,39.1-77.6,86.73h0Z"/><rect class="cls-1" x="272.48" y="434.08" width="205.57" height="118.62" rx="52.47" ry="52.47"/><polygon class="cls-1" points="326.99 539.03 354.35 539.03 340.67 559.93 326.99 580.83 313.31 559.93 299.63 539.03 326.99 539.03"/><rect class="cls-1" x="225.49" y="210.69" width="68.25" height="81.6" rx="31.91" ry="31.91" transform="translate(-0.45 0.47) rotate(-0.1)"/><path class="cls-1" d="M331.85,374.64h0c-.09-47.36-32.56-86-72.17-86h0c-39.61.07-71.95,38.88-71.86,86.24h0Z"/></g></g></svg>