<svg xmlns="http://www.w3.org/2000/svg" viewBox="0 0 52.6 50.83"><defs><style>.cls-1,.cls-2{fill:#9daada;}.cls-2{stroke:#fff;stroke-miterlimit:10;}.cls-3{fill:#fff;}</style></defs><title>crime</title><g id="Layer_2" data-name="Layer 2"><g id="Layer_1-2" data-name="Layer 1"><path class="cls-1" d="M13.89,25.33l9.65.18a.93.93,0,0,0,.9-1l.11-6a.93.93,0,0,0-.87-1L14,17.33a.93.93,0,0,0-.9,1l-.11,6A.93.93,0,0,0,13.89,25.33Z"/><path class="cls-1" d="M26.27,38.61A9.73,9.73,0,1,1,23.75,25,9.77,9.77,0,0,1,26.27,38.61ZM12.74,29.39A6.64,6.64,0,1,0,22,27.61,6.67,6.67,0,0,0,12.74,29.39Z"/><path class="cls-1" d="M44,30.18a9.73,9.73,0,1,1-2.53-13.57A9.77,9.77,0,0,1,44,30.18ZM30.42,21a6.64,6.64,0,1,0,9.26-1.79A6.67,6.67,0,0,0,30.42,21Z"/><path class="cls-1" d="M26.15,23.89l5.43-8a.88.88,0,0,0-.23-1.23l-4.5-3.06a.88.88,0,0,0-1.23.24l-5.43,8a.88.88,0,0,0,.23,1.23l4.5,3.06A.88.88,0,0,0,26.15,23.89Z"/><rect class="cls-1" x="25.32" y="22.43" width="1.37" height="3.2" transform="translate(-8.49 31.99) rotate(-55.74)"/><rect class="cls-2" x="30.97" y="14.13" width="1.37" height="3.2" transform="translate(0.84 33.04) rotate(-55.74)"/><path class="cls-2" d="M25.91,17.5l.5.09a.93.93,0,1,0-.59.86L25.55,18A.35.35,0,0,1,25.91,17.5Z"/><path class="cls-2" d="M26.4,17.59a.93.93,0,0,1-.59.86l.4.64a.35.35,0,0,0,.58,0l.57-.83a.35.35,0,0,0-.22-.54Z"/><path class="cls-2" d="M26.4,17.59l-.5-.09a.35.35,0,0,0-.36.53l.27.43a.93.93,0,0,0,.59-.86Z"/><path d="M26.3,50.83C11.8,50.83,0,39.43,0,25.41S11.8,0,26.3,0,52.6,11.4,52.6,25.41,40.8,50.83,26.3,50.83Zm0-48.73C13,2.09,2.24,12.55,2.24,25.41S13,48.73,26.3,48.73,50.35,38.27,50.35,25.41,39.56,2.09,26.3,2.09Z"/><path d="M37.28,33.67A9.78,9.78,0,0,1,31.78,32a9.72,9.72,0,0,1,3.69-17.6A9.78,9.78,0,0,1,42.8,15.9a9.69,9.69,0,0,1,2.58,13.52A9.81,9.81,0,0,1,37.28,33.67Zm0-16.37a6.81,6.81,0,0,0-1.26.12,6.65,6.65,0,0,0-4.28,2.79h0a6.62,6.62,0,0,0,1.76,9.23,6.72,6.72,0,0,0,9.29-1.75,6.62,6.62,0,0,0-1.76-9.23A6.67,6.67,0,0,0,37.31,17.3Z"/><path d="M27.49,23.11l5.43-7.92A.88.88,0,0,0,32.69,14L28.17,10.9a.89.89,0,0,0-1.23.23l-5.43,7.92a.88.88,0,0,0,.23,1.22l4.52,3.06A.89.89,0,0,0,27.49,23.11Z"/><polygon points="29.06 23.58 28.29 24.71 25.63 22.91 26.4 21.78 29.06 23.58"/><polygon points="34.71 15.33 33.94 16.46 31.28 14.66 32.05 13.53 34.71 15.33"/><path class="cls-3" d="M27.23,16.75l.5.09a.93.93,0,0,0-.41-.77.94.94,0,0,0-1.3.24.93.93,0,0,0,.25,1.29.94.94,0,0,0,.87.1l-.27-.43A.35.35,0,0,1,27.23,16.75Z"/><path class="cls-3" d="M27.73,16.84a.92.92,0,0,1-.59.86l.4.64a.35.35,0,0,0,.58,0l.57-.83a.35.35,0,0,0-.22-.54Z"/><path class="cls-3" d="M27.73,16.84l-.5-.09a.35.35,0,0,0-.36.53l.27.43a.92.92,0,0,0,.59-.86Z"/><path d="M22.94,16.8a2.58,2.58,0,0,1-1.45-.44,2.55,2.55,0,0,1-.68-3.56,2.59,2.59,0,0,1,3.58-.68h0a2.55,2.55,0,0,1,.68,3.56A2.58,2.58,0,0,1,22.94,16.8Zm0-4.1a1.55,1.55,0,0,0-1.28.67,1.53,1.53,0,0,0,.41,2.13,1.55,1.55,0,0,0,2.14-.4A1.53,1.53,0,0,0,23.82,13h0A1.54,1.54,0,0,0,22.95,12.7Z"/><path d="M24.57,14.88l-.36.52a.62.62,0,0,1-.85.16h0a.61.61,0,0,1-.16-.85l.36-.52a.62.62,0,0,1,.85-.16h0A.61.61,0,0,1,24.57,14.88Z"/><path d="M19.09,42.87a9.73,9.73,0,1,1,9.79-9.73A9.77,9.77,0,0,1,19.09,42.87Zm0-16.38a6.64,6.64,0,1,0,6.69,6.64A6.67,6.67,0,0,0,19.09,26.49Z"/><path d="M14.26,24.62h9.65a.88.88,0,0,0,.89-.88V18.3a.88.88,0,0,0-.89-.88H14.26a.88.88,0,0,0-.89.88v5.44A.88.88,0,0,0,14.26,24.62Z"/><rect x="13.38" y="22.97" width="1.37" height="3.2"/><rect x="23.42" y="22.97" width="1.37" height="3.2"/><path class="cls-3" d="M19.41,20.82l.2.46a.93.93,0,1,0-1,0l.2-.46A.35.35,0,0,1,19.41,20.82Z"/><path class="cls-3" d="M19.61,21.28a.93.93,0,0,1-1,0l-.3.69a.35.35,0,0,0,.32.49h1a.35.35,0,0,0,.32-.49Z"/><path class="cls-3" d="M19.61,21.28l-.2-.46a.35.35,0,0,0-.64,0l-.2.46a.93.93,0,0,0,1,0Z"/><path d="M19.09,18.45a2.56,2.56,0,1,1,2.58-2.56A2.57,2.57,0,0,1,19.09,18.45Zm0-4.1a1.53,1.53,0,1,0,1.54,1.53A1.54,1.54,0,0,0,19.09,14.35Z"/><rect x="18.21" y="16.37" width="1.86" height="1.22" rx="0.59" ry="0.59"/></g></g></svg>