<svg xmlns="http://www.w3.org/2000/svg" viewBox="0 0 50.2 49.2"><defs><style>.cls-1{fill:#b4cad5;}.cls-2{fill:#fff;}.cls-3{fill:#008600;stroke:#000;stroke-miterlimit:10;}</style></defs><title>Immigration</title><g id="Layer_2" data-name="Layer 2"><g id="Layer_1-2" data-name="Layer 1"><ellipse class="cls-1" cx="24.17" cy="22.78" rx="9.17" ry="9.3"/><path class="cls-1" d="M23.54,39.13,17,28.71a.75.75,0,0,1,.63-1.14h13a.75.75,0,0,1,.63,1.14L24.8,39.13A.75.75,0,0,1,23.54,39.13Z"/><ellipse class="cls-2" cx="24.1" cy="22.03" rx="4.74" ry="4.8"/><path class="cls-3" d="M24.22,48.7a24.9,24.9,0,0,1-5.5-.62A23.13,23.13,0,0,1,1.36,19.2a25.24,25.24,0,0,1,11.47-15C24.57-2.88,39.63.53,46.4,11.79c6.59,11,3,25.29-8.1,32.63l-.55-.83c10.68-7,14.1-20.78,7.79-31.28C39.06,1.52,24.61-1.74,13.34,5a24.25,24.25,0,0,0-11,14.43A22.13,22.13,0,0,0,18.94,47.11a24.24,24.24,0,0,0,17.91-3l.52.86A25.49,25.49,0,0,1,24.22,48.7Z"/><polygon class="cls-3" points="38.31 38.7 39.29 38.9 38.3 43.73 43.19 44.37 43.06 45.36 37.11 44.59 38.31 38.7"/><path class="cls-3" d="M24.39,43A17,17,0,0,1,11,36.78C5.27,29.66,6.3,19,13.37,12.59l.67.74c-6.68,6.08-7.66,16.1-2.22,22.82,5.68,7,16.28,7.88,23.62,1.93a17.45,17.45,0,0,0,6.41-11.36,15.84,15.84,0,0,0-14.55-18,17.49,17.49,0,0,0-12.45,3.9l-.63-.78A18.45,18.45,0,0,1,27.37,7.75,16.84,16.84,0,0,1,42.83,26.84,18.73,18.73,0,0,1,24.39,43Z"/><polygon class="cls-3" points="14.28 18.26 13.28 18.22 13.48 13.29 8.55 13.44 8.53 12.44 14.53 12.26 14.28 18.26"/></g></g></svg>