<svg xmlns="http://www.w3.org/2000/svg" viewBox="0 0 52.6 50.83"><defs><style>.cls-1{fill:#fff;}.cls-2{fill:#dba5a0;}</style></defs><title>society</title><g id="Layer_2" data-name="Layer 2"><g id="Layer_1-2" data-name="Layer 1"><path class="cls-1" d="M19.81,28.45a8.64,8.64,0,0,1,0-2.67,6.1,6.1,0,0,1,1.48-3.42A4.9,4.9,0,0,1,24.91,21,3.31,3.31,0,0,0,27,21.6c.76-.06,1-.41,1.64-.58a4,4,0,0,1,3.8,1.55,5.84,5.84,0,0,1,1,3.09,10.15,10.15,0,0,1,0,3,4.62,4.62,0,0,1-.93.63,4.45,4.45,0,0,1-1.36.44l0-2.76-.37,2.88a10.85,10.85,0,0,1-8.13,0L22.28,27l-.11,2.68a5.15,5.15,0,0,1-1.35-.5A5.35,5.35,0,0,1,19.81,28.45Z"/><path class="cls-1" d="M29.93,29a8.64,8.64,0,0,1,0-2.67,6.1,6.1,0,0,1,1.48-3.42A4.9,4.9,0,0,1,35,21.49a3.31,3.31,0,0,0,2.08.63c.76-.06,1-.41,1.64-.58a4,4,0,0,1,3.8,1.55,5.84,5.84,0,0,1,1,3.09,10.15,10.15,0,0,1,0,3,4.62,4.62,0,0,1-.93.63,4.45,4.45,0,0,1-1.36.44l0-2.76-.37,2.88a10.85,10.85,0,0,1-8.13,0l-.4-2.82-.11,2.68a5.15,5.15,0,0,1-1.35-.5A5.35,5.35,0,0,1,29.93,29Z"/><path class="cls-1" d="M9.32,28.87a8.64,8.64,0,0,1,0-2.67,6.1,6.1,0,0,1,1.48-3.42,4.9,4.9,0,0,1,3.58-1.39,3.31,3.31,0,0,0,2.08.63c.76-.06,1-.41,1.64-.58A4,4,0,0,1,21.94,23a5.84,5.84,0,0,1,1,3.09,10.15,10.15,0,0,1,0,3,4.62,4.62,0,0,1-.93.63,4.45,4.45,0,0,1-1.36.44l0-2.76-.37,2.88a10.85,10.85,0,0,1-8.13,0l-.4-2.82-.11,2.68a5.15,5.15,0,0,1-1.35-.5A5.35,5.35,0,0,1,9.32,28.87Z"/><ellipse class="cls-1" cx="30.89" cy="14.43" rx="2.86" ry="2.99"/><ellipse class="cls-1" cx="22.54" cy="14.42" rx="2.88" ry="2.99"/><ellipse class="cls-1" cx="36.67" cy="17.31" rx="3.72" ry="3.83"/><ellipse class="cls-1" cx="16.31" cy="17.21" rx="3.73" ry="3.9"/><path d="M26.3,50.83C11.8,50.83,0,39.43,0,25.41S11.8,0,26.3,0,52.6,11.4,52.6,25.41,40.8,50.83,26.3,50.83Zm0-48.73C13,2.09,2.24,12.55,2.24,25.41S13,48.73,26.3,48.73,50.35,38.27,50.35,25.41,39.56,2.09,26.3,2.09Z"/><ellipse cx="30.89" cy="14.42" rx="2.74" ry="2.91"/><ellipse cx="36.67" cy="17.34" rx="3.58" ry="3.8"/><path d="M29.8,29a8.64,8.64,0,0,1,0-2.67,6.1,6.1,0,0,1,1.48-3.42,4.9,4.9,0,0,1,3.58-1.39,3.31,3.31,0,0,0,2.08.63c.76-.06,1-.41,1.64-.58a4,4,0,0,1,3.8,1.55,5.84,5.84,0,0,1,1,3.09,10.15,10.15,0,0,1,0,3,4.62,4.62,0,0,1-.93.63,4.45,4.45,0,0,1-1.36.44l0-2.76-.37,2.88a10.85,10.85,0,0,1-8.13,0l-.4-2.82-.11,2.68a5.15,5.15,0,0,1-1.35-.5A5.35,5.35,0,0,1,29.8,29Z"/><path class="cls-1" d="M25.72,33.12a8.64,8.64,0,0,1,0-2.67A6.1,6.1,0,0,1,27.24,27a4.9,4.9,0,0,1,3.58-1.39,3.31,3.31,0,0,0,2.08.63c.76-.06,1-.41,1.64-.58a4,4,0,0,1,3.8,1.55,5.84,5.84,0,0,1,1,3.09,10.15,10.15,0,0,1,0,3,4.62,4.62,0,0,1-.93.63,4.45,4.45,0,0,1-1.36.44l0-2.76-.37,2.88a10.85,10.85,0,0,1-8.13,0l-.4-2.82-.11,2.68a5.15,5.15,0,0,1-1.35-.5A5.35,5.35,0,0,1,25.72,33.12Z"/><ellipse class="cls-1" cx="33.18" cy="21.53" rx="3.6" ry="3.82"/><ellipse cx="22.54" cy="14.43" rx="2.74" ry="2.91"/><ellipse class="cls-1" cx="26.65" cy="16.87" rx="3.68" ry="3.91"/><path d="M19.77,28.54a8.64,8.64,0,0,1,0-2.67,6.1,6.1,0,0,1,1.48-3.42,4.9,4.9,0,0,1,3.58-1.39,3.31,3.31,0,0,0,2.08.63c.76-.06,1-.41,1.64-.58a4,4,0,0,1,3.8,1.55,5.84,5.84,0,0,1,1,3.09,10.15,10.15,0,0,1,0,3,4.62,4.62,0,0,1-.93.63,4.45,4.45,0,0,1-1.36.44l0-2.76-.37,2.88a10.85,10.85,0,0,1-8.13,0l-.4-2.82-.11,2.68a5.15,5.15,0,0,1-1.35-.5A5.35,5.35,0,0,1,19.77,28.54Z"/><ellipse cx="16.29" cy="17.2" rx="3.58" ry="3.8"/><path d="M9.42,28.87a8.64,8.64,0,0,1,0-2.67,6.1,6.1,0,0,1,1.48-3.42,4.9,4.9,0,0,1,3.58-1.39,3.31,3.31,0,0,0,2.08.63c.76-.06,1-.41,1.64-.58A4,4,0,0,1,22,23a5.84,5.84,0,0,1,1,3.09,10.15,10.15,0,0,1,0,3,4.62,4.62,0,0,1-.93.63,4.45,4.45,0,0,1-1.36.44l0-2.76-.37,2.88a10.85,10.85,0,0,1-8.13,0l-.4-2.82-.11,2.68a5.15,5.15,0,0,1-1.35-.5A5.35,5.35,0,0,1,9.42,28.87Z"/><ellipse class="cls-1" cx="19.73" cy="21.6" rx="3.58" ry="3.8"/><path class="cls-1" d="M12.9,33.12a8.64,8.64,0,0,1,0-2.67A6.1,6.1,0,0,1,14.41,27,4.9,4.9,0,0,1,18,25.65a3.31,3.31,0,0,0,2.08.63c.76-.06,1-.41,1.64-.58a4,4,0,0,1,3.8,1.55,5.84,5.84,0,0,1,1,3.09,10.15,10.15,0,0,1,0,3,4.62,4.62,0,0,1-.93.63,4.45,4.45,0,0,1-1.36.44l0-2.76-.37,2.88a10.85,10.85,0,0,1-8.13,0l-.4-2.82-.11,2.68a5.15,5.15,0,0,1-1.35-.5A5.35,5.35,0,0,1,12.9,33.12Z"/><ellipse cx="26.65" cy="16.87" rx="3.58" ry="3.8"/><ellipse class="cls-1" cx="32.97" cy="21.55" rx="3.58" ry="3.8"/><ellipse class="cls-1" cx="19.95" cy="21.59" rx="3.58" ry="3.89"/><path d="M25.65,33.22a8.64,8.64,0,0,1,0-2.67,6.1,6.1,0,0,1,1.48-3.42,4.9,4.9,0,0,1,3.58-1.39,3.31,3.31,0,0,0,2.08.63c.76-.06,1-.41,1.64-.58a4,4,0,0,1,3.8,1.55,5.84,5.84,0,0,1,1,3.09,10.15,10.15,0,0,1,0,3,4.62,4.62,0,0,1-.93.63,4.45,4.45,0,0,1-1.36.44l0-2.76-.37,2.88a10.85,10.85,0,0,1-8.13,0l-.4-2.82L28,34.44a5.15,5.15,0,0,1-1.35-.5A5.35,5.35,0,0,1,25.65,33.22Z"/><path class="cls-1" d="M20.35,38.26a8.64,8.64,0,0,1,0-2.67,6.1,6.1,0,0,1,1.48-3.42,4.9,4.9,0,0,1,3.58-1.39,3.31,3.31,0,0,0,2.08.63c.76-.06,1-.41,1.64-.58A4,4,0,0,1,33,32.38a5.84,5.84,0,0,1,1,3.09,10.15,10.15,0,0,1,0,3,4.62,4.62,0,0,1-.93.63,4.45,4.45,0,0,1-1.36.44l0-2.76-.37,2.88a10.85,10.85,0,0,1-8.13,0l-.4-2.82-.11,2.68a5.15,5.15,0,0,1-1.35-.5A5.35,5.35,0,0,1,20.35,38.26Z"/><ellipse class="cls-1" cx="27.22" cy="26.59" rx="3.58" ry="3.8"/><path d="M13,33.27a8.64,8.64,0,0,1,0-2.67,6.1,6.1,0,0,1,1.48-3.42,4.9,4.9,0,0,1,3.58-1.39,3.31,3.31,0,0,0,2.08.63c.76-.06,1-.41,1.64-.58a4,4,0,0,1,3.8,1.55,5.84,5.84,0,0,1,1,3.09,10.15,10.15,0,0,1,0,3,4.62,4.62,0,0,1-.93.63,4.45,4.45,0,0,1-1.36.44l0-2.76L24,34.63a10.85,10.85,0,0,1-8.13,0l-.4-2.82-.11,2.68A5.15,5.15,0,0,1,14,34,5.35,5.35,0,0,1,13,33.27Z"/><path class="cls-1" d="M20.19,38.11a8.64,8.64,0,0,1,0-2.67A6.1,6.1,0,0,1,21.7,32a4.9,4.9,0,0,1,3.58-1.39,3.31,3.31,0,0,0,2.08.63c.76-.06,1-.41,1.64-.58a4,4,0,0,1,3.8,1.55,5.84,5.84,0,0,1,1,3.09,10.15,10.15,0,0,1,0,3,4.62,4.62,0,0,1-.93.63,4.45,4.45,0,0,1-1.36.44l0-2.76-.37,2.88a10.85,10.85,0,0,1-8.13,0l-.4-2.82-.11,2.68a5.15,5.15,0,0,1-1.35-.5A5.35,5.35,0,0,1,20.19,38.11Z"/><ellipse class="cls-1" cx="27.08" cy="26.65" rx="3.62" ry="3.81"/><ellipse cx="19.87" cy="21.6" rx="3.58" ry="3.8"/><path d="M20.3,38.28a8.64,8.64,0,0,1,0-2.67,6.1,6.1,0,0,1,1.48-3.42A4.9,4.9,0,0,1,25.4,30.8a3.31,3.31,0,0,0,2.08.63c.76-.06,1-.41,1.64-.58a4,4,0,0,1,3.8,1.55,5.84,5.84,0,0,1,1,3.09,10.15,10.15,0,0,1,0,3,4.62,4.62,0,0,1-.93.63,4.45,4.45,0,0,1-1.36.44l0-2.76-.37,2.88a10.85,10.85,0,0,1-8.13,0l-.4-2.82-.11,2.68a5.15,5.15,0,0,1-1.35-.5A5.35,5.35,0,0,1,20.3,38.28Z"/><ellipse cx="27.13" cy="26.65" rx="3.52" ry="3.74"/><path class="cls-2" d="M27.29,42.76h-.45a28.65,28.65,0,0,1-7.08-.92A16.69,16.69,0,0,1,10.58,36a16.74,16.74,0,0,1-3.14-7.66l1.36-.24a15.26,15.26,0,0,0,2.85,7c3.82,5,10.38,6.12,15.21,6.2h.81c5.86-.11,10.58-2.12,13.29-5.67a14.67,14.67,0,0,0,2.82-7.94l1.37.12A16.17,16.17,0,0,1,42,36.54c-3,3.89-8.06,6.09-14.33,6.21Z"/><ellipse cx="33.08" cy="21.55" rx="3.51" ry="3.73"/></g></g></svg>