<svg xmlns="http://www.w3.org/2000/svg" viewBox="0 0 750.17 752.03"><defs><style>.cls-1{fill:none;}.cls-2{fill:#b92113;stroke:#000;stroke-miterlimit:10;stroke-width:3px;}</style></defs><title>Aggressiveness</title><g id="Layer_2" data-name="Layer 2"><g id="Layer_1-2" data-name="Layer 1"><path class="cls-1" d="M374.9,377.12,109.81,112Q219.61,2.22,374.9,2.22Z"/><path class="cls-1" d="M374.9,377.12H0Q0,221.83,109.81,112Z"/><path class="cls-1" d="M374.9,377.12l-265.1,265.1Q0,532.41,0,377.12Z"/><path class="cls-1" d="M374.9,377.12V752q-155.29,0-265.1-109.81Z"/><path class="cls-1" d="M374.9,377.12,640,642.22Q530.19,752,374.9,752Z"/><path class="cls-1" d="M374.9,377.12h374.9q0,155.29-109.81,265.1Z"/><path class="cls-1" d="M374.9,377.12,640,112q109.81,109.81,109.81,265.1Z"/><path class="cls-1" d="M374.9,377.12V2.22Q530.19,2.22,640,112Z"/><path class="cls-2" d="M375.27,376.4l-265.1-265.1Q220,1.5,375.27,1.5Z"/><path class="cls-1" d="M375.27,376.4V1.5q155.29,0,265.1,109.81Z"/><path class="cls-1" d="M375.27,376.4l265.1-265.1Q750.17,221.11,750.17,376.4Z"/><path class="cls-1" d="M375.27,376.4H.36q0-155.29,109.81-265.1Z"/><path class="cls-1" d="M374.9,377.12,174.59,492.78c-63.87-110.63-26-252.09,84.66-316,36.84-21.27,73.11-31,115.65-31Z"/><path class="cls-1" d="M374.9,377.12,575.22,492.78c-63.87,110.63-205.34,148.54-316,84.66-36.84-21.27-63.39-47.82-84.66-84.66Z"/><path class="cls-1" d="M374.9,377.12V145.82c127.75,0,231.3,103.56,231.3,231.3,0,42.54-9.72,78.81-31,115.65Z"/></g></g></svg>