<svg xmlns="http://www.w3.org/2000/svg" viewBox="0 0 750.81 750.81"><defs><style>.cls-1{opacity:0.13;}.cls-2{fill:#e0e0e0;stroke:#000;stroke-miterlimit:10;}</style></defs><title>Gray_3</title><g id="Layer_2" data-name="Layer 2"><g id="Layer_1-2" data-name="Layer 1"><g class="cls-1"><path class="cls-2" d="M375.4,375.4l-265.1-265.1Q220.11.5,375.4.5Z"/><path class="cls-2" d="M375.4,375.4H.5q0-155.29,109.81-265.1Z"/><path class="cls-2" d="M375.4,375.4,110.31,640.5Q.5,530.69.5,375.4Z"/><path class="cls-2" d="M375.4,375.4v374.9q-155.29,0-265.1-109.81Z"/><path class="cls-2" d="M375.4,375.4,640.5,640.5Q530.69,750.31,375.4,750.31Z"/><path class="cls-2" d="M375.4,375.4h374.9q0,155.29-109.81,265.1Z"/><path class="cls-2" d="M375.4,375.4l265.1-265.1Q750.31,220.11,750.31,375.4Z"/><path class="cls-2" d="M375.4,375.4V.5Q530.69.5,640.5,110.31Z"/></g></g></g></svg>