<svg xmlns="http://www.w3.org/2000/svg" viewBox="0 0 750.17 750.53"><defs><style>.cls-1{fill:none;}.cls-2{fill:#3d3d3d;}</style></defs><title>Level2_2</title><g id="Layer_2" data-name="Layer 2"><g id="Layer_1-2" data-name="Layer 1"><path class="cls-1" d="M374.9,375.62l-265.1-265.1Q219.61.72,374.9.72Z"/><path class="cls-1" d="M374.9,375.62H0q0-155.29,109.81-265.1Z"/><path class="cls-1" d="M374.9,375.62l-265.1,265.1Q0,530.91,0,375.62Z"/><path class="cls-1" d="M374.9,375.62v374.9q-155.29,0-265.1-109.81Z"/><path class="cls-1" d="M374.9,375.62,640,640.72Q530.19,750.53,374.9,750.53Z"/><path class="cls-1" d="M374.9,375.62h374.9q0,155.29-109.81,265.1Z"/><path class="cls-1" d="M374.9,375.62,640,110.53q109.81,109.81,109.81,265.1Z"/><path class="cls-1" d="M374.9,375.62V.72Q530.19.72,640,110.53Z"/><path class="cls-1" d="M375.27,374.9l-265.1-265.1Q220,0,375.27,0Z"/><path class="cls-1" d="M375.27,374.9V0q155.29,0,265.1,109.81Z"/><path class="cls-1" d="M375.27,374.9l265.1-265.1Q750.17,219.61,750.17,374.9Z"/><path class="cls-1" d="M375.27,374.9h374.9q0,155.29-109.81,265.1Z"/><path class="cls-1" d="M375.27,374.9,640.36,640Q530.56,749.81,375.27,749.81Z"/><path class="cls-1" d="M375.27,374.9v374.9Q220,749.81,110.17,640Z"/><path class="cls-1" d="M375.27,374.9,110.17,640Q.36,530.19.36,374.9Z"/><path class="cls-1" d="M375.27,374.9H.36q0-155.29,109.81-265.1Z"/><rect class="cls-2" x="256.63" y="256.27" width="237.27" height="237.27" rx="118.63" ry="118.63"/></g></g></svg>