<svg xmlns="http://www.w3.org/2000/svg" viewBox="0 0 333.36 325.85"><defs><style>.cls-1,.cls-3{fill:#9bafb5;}.cls-2{fill:#fff;}.cls-3{opacity:0.36;}</style></defs><title>circlePacking</title><g id="Layer_2" data-name="Layer 2"><g id="Layer_1-2" data-name="Layer 1"><ellipse class="cls-1" cx="166.68" cy="162.92" rx="166.68" ry="162.92"/><circle class="cls-2" cx="165.96" cy="163.92" r="137.39"/><circle class="cls-3" cx="104.51" cy="162.92" r="71.22"/><circle class="cls-1" cx="144.64" cy="162.92" r="26.85"/><circle class="cls-1" cx="74.83" cy="162.92" r="38.76"/><circle class="cls-2" cx="92.2" cy="154.11" r="15.62"/><circle class="cls-2" cx="58.22" cy="154.11" r="15.62"/><circle class="cls-2" cx="74.83" cy="183.34" r="15.62"/><circle class="cls-3" cx="187.12" cy="77.11" r="44.4"/><circle class="cls-3" cx="224.13" cy="162.92" r="44.4"/><circle class="cls-3" cx="187.12" cy="248.74" r="44.4"/><circle class="cls-1" cx="187.75" cy="248.74" r="38.76"/><circle class="cls-1" cx="225.13" cy="151.01" r="26.85"/><circle class="cls-2" cx="213.13" cy="189.77" r="12"/><circle class="cls-2" cx="238.51" cy="189.69" r="12"/><circle class="cls-2" cx="223.27" cy="136.08" r="8.81"/><circle class="cls-2" cx="212.94" cy="153.11" r="8.81"/><circle class="cls-2" cx="238.51" cy="150.68" r="8.81"/><circle class="cls-2" cx="226.51" cy="167.72" r="8.81"/><circle class="cls-1" cx="187.12" cy="89.03" r="26.85"/><circle class="cls-2" cx="187.12" cy="77.11" r="8.81"/><circle class="cls-2" cx="188.47" cy="97.84" r="8.81"/></g></g></svg>