<svg xmlns="http://www.w3.org/2000/svg" viewBox="0 0 333.36 325.85"><defs><style>.cls-1{fill:#9bafb5;}.cls-2{fill:#fff;}.cls-3{fill:none;stroke:#fff;stroke-miterlimit:10;stroke-width:3px;}</style></defs><title>force</title><g id="Layer_2" data-name="Layer 2"><g id="Layer_1-2" data-name="Layer 1"><ellipse class="cls-1" cx="166.68" cy="162.92" rx="166.68" ry="162.92"/><circle class="cls-2" cx="166.83" cy="157.7" r="17.5"/><circle class="cls-2" cx="167.52" cy="89.22" r="11.02" transform="translate(55.24 242.24) rotate(-81.77)"/><circle class="cls-2" cx="101.42" cy="196.19" r="11.94"/><circle class="cls-2" cx="233.83" cy="181.97" r="11.94" transform="translate(-53.42 109.34) rotate(-23.7)"/><circle class="cls-2" cx="42.47" cy="187.45" r="10.16" transform="translate(-149.73 188.93) rotate(-77.68)"/><circle class="cls-2" cx="250.19" cy="236.34" r="10.75" transform="translate(-41.98 54.44) rotate(-11.46)"/><circle class="cls-2" cx="281.06" cy="202.99" r="10.51" transform="translate(-57.89 130.09) rotate(-23.7)"/><circle class="cls-2" cx="288.83" cy="160.48" r="10.74" transform="translate(-40.11 191.73) rotate(-34.48)"/><line class="cls-3" x1="166.83" y1="157.7" x2="167.52" y2="89.15"/><line class="cls-3" x1="101.57" y1="194" x2="166.32" y2="158.41"/><line class="cls-3" x1="233.83" y1="181.97" x2="177.03" y2="162.69"/><line class="cls-3" x1="288.83" y1="160.48" x2="236.47" y2="181.96"/><line class="cls-3" x1="281.06" y1="202.99" x2="233.83" y2="181.97"/><line class="cls-3" x1="250.19" y1="236.34" x2="235.6" y2="182.79"/><line class="cls-3" x1="42.47" y1="187.45" x2="101.99" y2="197.41"/><line class="cls-3" x1="151.02" y1="236.33" x2="166.83" y2="158.72"/><circle class="cls-2" cx="151.02" cy="234.33" r="10.59"/><circle class="cls-2" cx="224.5" cy="116.11" r="10.56"/><line class="cls-3" x1="166.82" y1="157.95" x2="222.89" y2="117.28"/><circle class="cls-2" cx="103.33" cy="110.03" r="10.03"/><circle class="cls-2" cx="190.24" cy="241.19" r="10.86"/><line class="cls-3" x1="190.24" y1="241.19" x2="169.39" y2="158.97"/><line class="cls-3" x1="167.16" y1="157.7" x2="101.96" y2="109.01"/><circle class="cls-2" cx="91.39" cy="146.47" r="10.03" transform="translate(-56.99 58.22) rotate(-27.3)"/><line class="cls-3" x1="162.86" y1="158.83" x2="91.39" y2="147.75"/></g></g></svg>