<svg xmlns="http://www.w3.org/2000/svg" viewBox="0 0 333.36 325.85"><defs><style>.cls-1{fill:#9bafb5;}.cls-2{fill:#fff;}.cls-3{fill:none;stroke:#fff;stroke-miterlimit:10;stroke-width:3px;}</style></defs><title>forceLayout</title><g id="Layer_2" data-name="Layer 2"><g id="Layer_1-2" data-name="Layer 1"><ellipse class="cls-1" cx="166.68" cy="162.92" rx="166.68" ry="162.92"/><circle class="cls-2" cx="166.68" cy="150.99" r="17.5"/><circle class="cls-2" cx="166.68" cy="98.29" r="11.94"/><circle class="cls-2" cx="146.18" cy="51.53" r="11.94"/><circle class="cls-2" cx="187.07" cy="51.53" r="11.94"/><circle class="cls-2" cx="124.74" cy="191.47" r="11.94"/><circle class="cls-2" cx="210.95" cy="191.47" r="11.94"/><circle class="cls-2" cx="64.46" cy="194.45" r="11.94"/><circle class="cls-2" cx="79.7" cy="220.36" r="11.94"/><circle class="cls-2" cx="105.18" cy="240.63" r="11.94"/><circle class="cls-2" cx="136.68" cy="253.57" r="11.94"/><circle class="cls-2" cx="214.6" cy="246.85" r="11.94"/><circle class="cls-2" cx="245.74" cy="229.7" r="11.94"/><circle class="cls-2" cx="266.26" cy="203.4" r="11.94"/><line class="cls-3" x1="146.18" y1="51.53" x2="166.68" y2="98.29"/><line class="cls-3" x1="187.07" y1="51.53" x2="166.68" y2="98.29"/><line class="cls-3" x1="166.68" y1="150.99" x2="166.68" y2="98.29"/><line class="cls-3" x1="124.74" y1="191.47" x2="166.68" y2="150.99"/><line class="cls-3" x1="210.95" y1="191.47" x2="166.68" y2="150.99"/><line class="cls-3" x1="266.26" y1="203.4" x2="210.95" y2="191.47"/><line class="cls-3" x1="245.74" y1="229.7" x2="210.95" y2="191.47"/><line class="cls-3" x1="214.6" y1="246.85" x2="210.95" y2="191.47"/><line class="cls-3" x1="64.46" y1="194.45" x2="124.74" y2="191.47"/><line class="cls-3" x1="79.7" y1="220.36" x2="124.74" y2="191.47"/><line class="cls-3" x1="105.18" y1="240.63" x2="124.74" y2="191.47"/><line class="cls-3" x1="136.68" y1="253.57" x2="124.74" y2="191.47"/></g></g></svg>