<svg xmlns="http://www.w3.org/2000/svg" viewBox="0 0 333.36 325.85"><defs><style>.cls-1{fill:#9bafb5;}.cls-2{fill:#fff;}.cls-3{fill:none;stroke:#fff;stroke-miterlimit:10;stroke-width:3px;}</style></defs><title>forceDirectednew</title><g id="Layer_2" data-name="Layer 2"><g id="Layer_1-2" data-name="Layer 1"><ellipse class="cls-1" cx="166.68" cy="162.92" rx="166.68" ry="162.92"/><circle class="cls-2" cx="168.78" cy="161.91" r="17.5"/><circle class="cls-2" cx="169.47" cy="93.36" r="11.94"/><circle class="cls-2" cx="143.65" cy="47.41" r="11.06" transform="translate(-5.42 21.72) rotate(-8.49)"/><circle class="cls-2" cx="196.35" cy="47.37" r="11.02" transform="matrix(0.14, -0.99, 0.99, 0.14, 121.35, 234.92)"/><circle class="cls-2" cx="103.36" cy="200.39" r="11.94"/><circle class="cls-2" cx="235.77" cy="186.17" r="11.94" transform="translate(-54.95 110.47) rotate(-23.7)"/><circle class="cls-2" cx="44.63" cy="183.93" r="10.16" transform="translate(-143.85 166.66) rotate(-71.13)"/><circle class="cls-2" cx="52.58" cy="214.6" r="10.06" transform="translate(-168.33 210.5) rotate(-75.17)"/><circle class="cls-2" cx="72.02" cy="240.72" r="9.38" transform="translate(-179.12 248.73) rotate(-75.17)"/><circle class="cls-2" cx="101.74" cy="261.16" r="9.78" transform="translate(-172.39 319.54) rotate(-80.74)"/><circle class="cls-2" cx="252.14" cy="240.55" r="10.75" transform="translate(-42.78 54.91) rotate(-11.46)"/><circle class="cls-2" cx="283" cy="207.19" r="10.51" transform="translate(-59.41 131.23) rotate(-23.7)"/><circle class="cls-2" cx="290.78" cy="164.69" r="10.74" transform="translate(-42.15 193.57) rotate(-34.48)"/><line class="cls-3" x1="143.65" y1="47.41" x2="170.83" y2="90.64"/><line class="cls-3" x1="196.35" y1="47.37" x2="169.47" y2="90.74"/><line class="cls-3" x1="168.78" y1="161.91" x2="169.47" y2="93.36"/><line class="cls-3" x1="103.52" y1="198.2" x2="168.26" y2="162.61"/><line class="cls-3" x1="235.77" y1="186.17" x2="178.97" y2="166.9"/><line class="cls-3" x1="290.78" y1="164.69" x2="238.42" y2="186.17"/><line class="cls-3" x1="283" y1="207.19" x2="235.77" y2="186.17"/><line class="cls-3" x1="252.14" y1="240.55" x2="237.55" y2="187"/><line class="cls-3" x1="44.63" y1="183.93" x2="102.63" y2="200.61"/><line class="cls-3" x1="52.58" y1="214.6" x2="103.52" y2="198.2"/><line class="cls-3" x1="72.02" y1="240.72" x2="103.52" y2="198.2"/><line class="cls-3" x1="101.74" y1="261.16" x2="99.96" y2="197.95"/><line class="cls-3" x1="152.97" y1="240.54" x2="168.78" y2="162.92"/><circle class="cls-2" cx="152.97" cy="238.54" r="10.59"/><circle class="cls-2" cx="226.45" cy="120.32" r="10.56"/><line class="cls-3" x1="168.77" y1="162.15" x2="224.84" y2="121.48"/><circle class="cls-2" cx="105.27" cy="114.23" r="10.03"/><circle class="cls-2" cx="192.19" cy="245.4" r="10.86"/><line class="cls-3" x1="192.19" y1="245.4" x2="171.33" y2="163.18"/><line class="cls-3" x1="169.11" y1="161.91" x2="103.9" y2="113.21"/><circle class="cls-2" cx="93.34" cy="150.67" r="10.03" transform="translate(-58.7 59.58) rotate(-27.3)"/><line class="cls-3" x1="164.8" y1="163.03" x2="93.34" y2="151.95"/></g></g></svg>