<svg xmlns="http://www.w3.org/2000/svg" viewBox="0 0 982.62 982.62"><defs><style>.cls-1{fill:#fff;}.cls-2{fill:#5e1566;}.cls-3{fill:#a313b3;}.cls-4{fill:#e3b7e8;}.cls-5{fill:#0b5696;}.cls-6{fill:#1795ff;}.cls-7{fill:#97cfff;}.cls-8{fill:#1b8055;}.cls-9{fill:#90f6b2;}</style></defs><title>circular glyph_final</title><g id="Layer_2" data-name="Layer 2"><g id="Layer_1-2" data-name="Layer 1"><rect class="cls-1" width="982.62" height="982.62"/><path class="cls-2" d="M491.31,491.31l-265.1-265.1Q336,116.41,491.31,116.41Z"/><path class="cls-3" d="M491.31,491.31H116.41q0-155.29,109.81-265.1Z"/><path class="cls-4" d="M491.31,491.31l-265.1,265.1Q116.41,646.6,116.41,491.31Z"/><path class="cls-5" d="M491.31,491.31v374.9q-155.29,0-265.1-109.81Z"/><path class="cls-6" d="M491.31,491.31l265.1,265.1Q646.6,866.21,491.31,866.21Z"/><path class="cls-7" d="M491.31,491.31h374.9q0,155.29-109.81,265.1Z"/><path class="cls-8" d="M491.31,491.31l265.1-265.1Q866.21,336,866.21,491.31Z"/><path class="cls-9" d="M491.31,491.31V116.41q155.29,0,265.1,109.81Z"/><circle cx="490.48" cy="486.89" r="159.45"/></g></g></svg>