<svg xmlns="http://www.w3.org/2000/svg" viewBox="0 0 749.81 749.81"><defs><style>.cls-1{fill:#5e1566;}.cls-2{fill:#a313b3;}.cls-3{fill:#e3b7e8;}.cls-4{fill:#0b5696;}.cls-5{fill:#1795ff;}.cls-6{fill:#97cfff;}.cls-7{fill:#1b8055;}.cls-8{fill:#90f6b2;}.cls-9{fill:#fff;}</style></defs><title>Circular glyph</title><g id="Layer_2" data-name="Layer 2"><g id="Layer_1-2" data-name="Layer 1"><path class="cls-1" d="M374.9,374.9l-265.1-265.1Q219.61,0,374.9,0Z"/><path class="cls-2" d="M374.9,374.9H0q0-155.29,109.81-265.1Z"/><path class="cls-3" d="M374.9,374.9,109.81,640Q0,530.19,0,374.9Z"/><path class="cls-4" d="M374.9,374.9v374.9q-155.29,0-265.1-109.81Z"/><path class="cls-5" d="M374.9,374.9,640,640Q530.19,749.81,374.9,749.81Z"/><path class="cls-6" d="M374.9,374.9h374.9Q749.81,530.19,640,640Z"/><path class="cls-7" d="M374.9,374.9,640,109.81Q749.81,219.61,749.81,374.9Z"/><path class="cls-8" d="M374.9,374.9V0Q530.19,0,640,109.81Z"/><circle class="cls-9" cx="374.07" cy="370.48" r="159.45"/></g></g></svg>