<svg xmlns="http://www.w3.org/2000/svg" viewBox="0 0 333.36 325.85"><defs><style>.cls-1{fill:#9bafb5;}.cls-2{fill:#fff;}.cls-3{fill:none;stroke:#fff;stroke-miterlimit:10;}</style></defs><title>radialLayout</title><g id="Layer_2" data-name="Layer 2"><g id="Layer_1-2" data-name="Layer 1"><ellipse class="cls-1" cx="166.68" cy="162.92" rx="166.68" ry="162.92"/><circle class="cls-2" cx="166.68" cy="162.92" r="29.28"/><circle class="cls-2" cx="166.68" cy="104.14" r="7.9"/><circle class="cls-2" cx="166.68" cy="221.71" r="7.9"/><circle class="cls-2" cx="166.68" cy="104.14" r="7.9"/><circle class="cls-2" cx="166.68" cy="221.71" r="7.9"/><circle class="cls-2" cx="148.96" cy="106.87" r="7.9" transform="translate(-25.28 49.86) rotate(-17.54)"/><circle class="cls-2" cx="184.4" cy="218.98" r="7.9" transform="translate(-57.42 65.76) rotate(-17.54)"/><circle class="cls-2" cx="184.4" cy="106.87" r="7.9" transform="translate(26.92 250.49) rotate(-72.46)"/><circle class="cls-2" cx="148.96" cy="218.98" r="7.9" transform="translate(-104.73 295.02) rotate(-72.46)"/><circle class="cls-2" cx="133.04" cy="114.71" r="7.9" transform="translate(-41.7 96.76) rotate(-34.9)"/><circle class="cls-2" cx="200.32" cy="211.14" r="7.9" transform="translate(-84.78 152.6) rotate(-34.9)"/><circle class="cls-2" cx="200.32" cy="114.71" r="7.9" transform="translate(-8.38 213.36) rotate(-55.1)"/><circle class="cls-2" cx="133.04" cy="211.14" r="7.9" transform="translate(-116.24 199.44) rotate(-55.1)"/><circle class="cls-2" cx="119.78" cy="127.48" r="7.9" transform="translate(-54.14 146.16) rotate(-52.91)"/><circle class="cls-2" cx="213.58" cy="198.37" r="7.9" transform="translate(-73.46 249.13) rotate(-52.91)"/><circle class="cls-2" cx="213.58" cy="127.48" r="7.9" transform="translate(-33.67 154.57) rotate(-37.09)"/><circle class="cls-2" cx="119.78" cy="198.37" r="7.9" transform="translate(-95.39 112.35) rotate(-37.09)"/><circle class="cls-2" cx="111.44" cy="142.82" r="7.9" transform="translate(-60.88 198.69) rotate(-70)"/><circle class="cls-2" cx="221.92" cy="183.03" r="7.9" transform="translate(-25.98 328.97) rotate(-70)"/><circle class="cls-2" cx="111.12" cy="182.14" r="7.9" transform="translate(-53.44 46.33) rotate(-19.08)"/><circle class="cls-2" cx="222.24" cy="143.71" r="7.9" transform="translate(-34.77 80.55) rotate(-19.08)"/><circle class="cls-2" cx="107.89" cy="162.79" r="7.9" transform="matrix(0, -1, 1, 0, -55.15, 270.3)"/><circle class="cls-2" cx="225.47" cy="163.06" r="7.9" transform="matrix(0, -1, 1, 0, 61.88, 388.15)"/><line class="cls-3" x1="184.4" y1="106.87" x2="148.96" y2="218.98"/><line class="cls-3" x1="184.4" y1="218.98" x2="148.96" y2="106.87"/><line class="cls-3" x1="200.28" y1="211.17" x2="133.08" y2="114.68"/><line class="cls-3" x1="200.28" y1="114.68" x2="133.08" y2="211.17"/><line class="cls-3" x1="119.66" y1="127.64" x2="213.7" y2="198.21"/><line class="cls-3" x1="119.66" y1="198.21" x2="213.7" y2="127.64"/><line class="cls-3" x1="166.68" y1="221.71" x2="166.68" y2="104.14"/><line class="cls-3" x1="107.89" y1="162.92" x2="225.47" y2="162.92"/><line class="cls-3" x1="111.36" y1="143.05" x2="222.01" y2="182.8"/><line class="cls-3" x1="111.36" y1="182.8" x2="222.01" y2="143.05"/><circle class="cls-2" cx="166.68" cy="72.74" r="7.9"/><circle class="cls-2" cx="96.31" cy="218.14" r="7.9"/><circle class="cls-2" cx="251.66" cy="190.93" r="7.9"/><circle class="cls-2" cx="89.67" cy="109.29" r="7.9"/><circle class="cls-2" cx="196.11" cy="250.02" r="7.9"/><circle class="cls-2" cx="207.86" cy="277.12" r="7.9" transform="translate(-40.5 35.62) rotate(-8.93)"/><line class="cls-3" x1="196.79" y1="254.51" x2="184.4" y2="218.98"/><line class="cls-3" x1="207.86" y1="277.12" x2="195.61" y2="250.02"/><line class="cls-3" x1="252.85" y1="190.93" x2="222.24" y2="183.03"/><line class="cls-3" x1="166.68" y1="104.36" x2="166.68" y2="72.74"/><line class="cls-3" x1="117.49" y1="126.61" x2="89.59" y2="109.29"/><line class="cls-3" x1="96.35" y1="219.19" x2="119.9" y2="198.1"/></g></g></svg>