<svg xmlns="http://www.w3.org/2000/svg" viewBox="0 0 333.36 325.85"><defs><style>.cls-1{fill:#9bafb5;}.cls-2{fill:#fff;}.cls-3,.cls-4{fill:none;stroke:#fff;stroke-miterlimit:10;}.cls-3{stroke-width:4px;}.cls-4{stroke-width:3px;}</style></defs><title>tree</title><g id="Layer_2" data-name="Layer 2"><g id="Layer_1-2" data-name="Layer 1"><ellipse class="cls-1" cx="166.68" cy="162.92" rx="166.68" ry="162.92"/><circle class="cls-2" cx="92" cy="163.5" r="17.91"/><circle class="cls-2" cx="144.82" cy="100.4" r="12.39"/><circle class="cls-2" cx="147.53" cy="163.6" r="12.39"/><circle class="cls-2" cx="194.17" cy="114.4" r="8.76"/><line class="cls-3" x1="92" y1="163.5" x2="147.53" y2="163.5"/><path class="cls-4" d="M92,163.5c40.43-17.91,12.91-63.09,52.82-63.09"/><path class="cls-4" d="M147.53,232.8C99.21,228.7,142,189.16,92,163.5"/><path class="cls-4" d="M144.82,100.4c17.5,0,29.52,25.92,43.72,14"/><path class="cls-4" d="M194.17,81.8c-25.9-16.23-29.1,12.9-49.35,18.61"/><line class="cls-4" x1="193.31" y1="162.92" x2="147.53" y2="163.6"/><path class="cls-4" d="M193.31,162.92"/><path class="cls-4" d="M238.24,187.7"/><path class="cls-4" d="M239.41,187.89"/><path class="cls-4" d="M298.35,191.1"/><circle class="cls-2" cx="193.71" cy="163.11" r="8.76"/><circle class="cls-2" cx="193.88" cy="81.87" r="8.76"/><circle class="cls-2" cx="147.53" cy="232.8" r="12.39"/><circle class="cls-2" cx="196.88" cy="246.8" r="8.76"/><path class="cls-4" d="M147.53,232.8c17.5,0,29.52,25.92,43.72,14"/><path class="cls-4" d="M196.88,214.19c-25.9-16.23-29.1,12.9-49.35,18.61"/><circle class="cls-2" cx="196.59" cy="214.26" r="8.76"/><circle class="cls-2" cx="227.95" cy="163.5" r="8.76"/><line class="cls-4" x1="234.32" y1="162.92" x2="188.54" y2="163.6"/></g></g></svg>