<svg xmlns="http://www.w3.org/2000/svg" viewBox="0 0 333.36 325.85"><defs><style>.cls-1{fill:#9bafb5;}.cls-2{fill:#fff;}.cls-3,.cls-4{fill:none;stroke:#fff;stroke-miterlimit:10;}.cls-3{stroke-width:4px;}.cls-4{stroke-width:3px;}</style></defs><title>treeLayout</title><g id="Layer_2" data-name="Layer 2"><g id="Layer_1-2" data-name="Layer 1"><ellipse class="cls-1" cx="166.68" cy="162.92" rx="166.68" ry="162.92"/><circle class="cls-2" cx="70.14" cy="162.92" r="17.91"/><circle class="cls-2" cx="122.96" cy="99.83" r="12.39"/><circle class="cls-2" cx="125.67" cy="163.03" r="12.39"/><circle class="cls-2" cx="125.67" cy="232.22" r="12.39"/><circle class="cls-2" cx="172.31" cy="81.22" r="12.39"/><circle class="cls-2" cx="172.31" cy="113.83" r="8.76"/><circle class="cls-2" cx="171.45" cy="162.35" r="12.39"/><circle class="cls-2" cx="171.45" cy="231.7" r="12.39"/><circle class="cls-2" cx="171.45" cy="262.47" r="9.62"/><line class="cls-3" x1="70.14" y1="162.92" x2="125.67" y2="162.92"/><path class="cls-4" d="M70.14,162.92C110.57,145,83,99.83,123,99.83"/><path class="cls-4" d="M125.67,232.22c-48.32-4.1-5.48-43.63-55.53-69.3"/><path class="cls-4" d="M123,99.83c17.5,0,29.52,25.92,43.72,14"/><path class="cls-4" d="M172.31,81.22C146.41,65,143.21,94.12,123,99.83"/><path class="cls-4" d="M171.45,231.7c-12.39-17.57-33.39.53-45.78.53"/><path class="cls-4" d="M172.66,259.62c-22.58,12.23-36.56-26.32-48.87-24.94"/><line class="cls-4" x1="171.45" y1="162.35" x2="125.67" y2="163.03"/><circle class="cls-2" cx="216.38" cy="149.96" r="8.76"/><circle class="cls-2" cx="216.38" cy="187.13" r="12.39"/><path class="cls-4" d="M216.38,150c-15.1-8.76-31.69,18.84-44.94,12.39"/><path class="cls-4" d="M216.38,187.13c-20.6,8.76-32.55-24.78-44.94-24.78"/><circle class="cls-2" cx="216.38" cy="62.86" r="8.76"/><circle class="cls-2" cx="216.38" cy="94.12" r="12.39"/><path class="cls-4" d="M216.38,62.86c-16.09-8.76-28.29,8.46-41.21,18.37"/><path class="cls-4" d="M216.38,94.12c-13.74,4.3-26.42-6.68-41.21-12.9"/><circle class="cls-2" cx="216.38" cy="231.7" r="8.76"/><line class="cls-4" x1="216.38" y1="231.7" x2="171.45" y2="231.7"/><line class="cls-4" x1="262.65" y1="93.26" x2="216.38" y2="93.64"/><circle class="cls-2" cx="263.05" cy="93.45" r="8.76"/><line class="cls-4" x1="263.81" y1="186.94" x2="217.55" y2="187.32"/><circle class="cls-2" cx="264.22" cy="187.13" r="8.76"/></g></g></svg>