<svg xmlns="http://www.w3.org/2000/svg" viewBox="0 0 2059.92 2036.58"><defs><style>.cls-1,.cls-2{fill:#5c7273;}.cls-1{opacity:0.47;}</style></defs><title>Stereotype</title><g id="Layer_2" data-name="Layer 2"><g id="Layer_1-2" data-name="Layer 1"><rect class="cls-1" x="522.47" y="567.41" width="1141.6" height="778.2" rx="247.1" ry="247.1"/><path d="M1030,2036.58C462,2036.58,0,1579.77,0,1018.28S462,0,1030,0s1030,456.79,1030,1018.28S1597.9,2036.58,1030,2036.58Zm0-1952.81C510.44,83.77,87.79,503,87.79,1018.28S510.44,1952.81,1030,1952.81s942.18-419.22,942.18-934.53S1549.46,83.77,1030,83.77Z"/><rect class="cls-2" x="494.8" y="579.79" width="1141.6" height="766.18" rx="245.18" ry="245.18"/><polygon class="cls-2" points="842.91 1578.95 734.63 1414.01 626.35 1249.06 845.98 1251.21 1065.6 1253.37 954.25 1416.16 842.91 1578.95"/></g></g></svg>