<svg xmlns="http://www.w3.org/2000/svg" viewBox="0 0 823.68 825.8"><defs><style>.cls-1{fill:#7f70b4;}.cls-2,.cls-4{fill:#f2f2f2;}.cls-2,.cls-5{stroke:#000;stroke-miterlimit:10;}.cls-2{stroke-width:11px;}.cls-3{font-size:106.74px;font-family:TimesNewRomanPS-BoldMT, Times New Roman;font-weight:700;}.cls-5{fill:none;stroke-width:9px;}</style></defs><title>NewsIcon_1</title><g id="Layer_2" data-name="Layer 2"><g id="Layer_1-2" data-name="Layer 1"><ellipse class="cls-1" cx="411.84" cy="412.9" rx="411.84" ry="412.9"/><path class="cls-2" d="M571.56,268.88h-389c-9.58,0-17.34,9.51-17.34,21.25V527c0,39.67,26.49,72.13,58.87,72.13H527.19c32.38,0,58.87-32.46,58.87-72.13V286.64C586.06,276.83,579.57,268.88,571.56,268.88Z"/><path class="cls-2" d="M639.68,190.86H260.12a22.5,22.5,0,0,0-22.5,22.5V526.88A72.36,72.36,0,0,0,309.77,599H586.35a72.36,72.36,0,0,0,72.15-72.14V209.67A18.81,18.81,0,0,0,639.68,190.86Z"/><text class="cls-3" transform="translate(300.41 312.48) scale(0.95 1)">NEWS</text><rect x="292.37" y="329.09" width="307.57" height="24.4" rx="8.38" ry="8.38"/><rect x="292.37" y="510.93" width="307.57" height="24.4" rx="8.38" ry="8.38"/><rect x="292.37" y="468.42" width="307.57" height="24.4" rx="8.38" ry="8.38"/><rect x="292.37" y="421.98" width="307.57" height="24.4" rx="8.38" ry="8.38"/><rect x="292.37" y="375.53" width="307.57" height="24.4" rx="8.38" ry="8.38"/><rect class="cls-4" x="252.57" y="562.33" height="4.52"/><path class="cls-5" d="M236.91,512.5a122.4,122.4,0,0,1-6.67,44.93A114.28,114.28,0,0,1,206.82,597"/><path class="cls-4" d="M269.56,547.51V521.1H243.22l-7.32,33.58A72.5,72.5,0,0,0,246.55,574a73.31,73.31,0,0,0,22.77,19.43h41.23V547.51Z"/><path class="cls-5" d="M238.41,512.07a122.4,122.4,0,0,1-5.24,45.12A114.28,114.28,0,0,1,211,597.53"/></g></g></svg>