<svg xmlns="http://www.w3.org/2000/svg" xmlns:xlink="http://www.w3.org/1999/xlink" version="1.1" x="0px" y="0px" viewBox="0 0 48 60" enable-background="new 0 0 48 48" xml:space="preserve"><g><path d="M29.998,28.997h-8c-0.552,0-1-0.447-1-1v-3.114c-0.326-0.334-0.617-0.701-0.871-1.095   c-0.737-1.123-1.129-2.437-1.129-3.791c0-0.758,0.122-1.508,0.361-2.227c0.515-1.509,1.521-2.804,2.836-3.653   c2.259-1.465,5.347-1.465,7.607,0.001c1.313,0.848,2.32,2.144,2.832,3.646c0.242,0.725,0.364,1.475,0.364,2.233   c0,1.354-0.392,2.668-1.134,3.799c-0.25,0.389-0.542,0.754-0.866,1.087v3.114C30.998,28.55,30.55,28.997,29.998,28.997z    M22.998,26.997h6v-2.54c0-0.284,0.121-0.555,0.332-0.744c0.327-0.294,0.616-0.633,0.857-1.007   c0.532-0.811,0.811-1.745,0.811-2.708c0-0.543-0.087-1.079-0.259-1.594c-0.366-1.072-1.085-2-2.024-2.606   c-1.614-1.047-3.821-1.046-5.434-0.001c-0.94,0.607-1.659,1.535-2.027,2.614c-0.169,0.508-0.256,1.044-0.256,1.587   c0,0.963,0.279,1.897,0.806,2.701c0.245,0.381,0.534,0.72,0.862,1.015c0.211,0.189,0.332,0.46,0.332,0.744V26.997z"/></g><g><path d="M25.998,27.997c-0.552,0-1-0.447-1-1v-2c0-0.552,0.448-1,1-1s1,0.448,1,1v2C26.998,27.55,26.55,27.997,25.998,27.997z"/></g><g><path d="M24,20c-0.13,0-0.26-0.03-0.38-0.08c-0.13-0.05-0.24-0.12-0.33-0.22C23.1,19.52,23,19.26,23,19c0-0.26,0.1-0.52,0.29-0.71   c0.09-0.09,0.2-0.17,0.33-0.22c0.36-0.15,0.81-0.06,1.08,0.22c0.1,0.09,0.17,0.2,0.22,0.33C24.97,18.74,25,18.87,25,19   c0,0.26-0.11,0.52-0.3,0.7c-0.04,0.05-0.09,0.09-0.15,0.13c-0.05,0.04-0.11,0.07-0.17,0.09c-0.06,0.03-0.12,0.05-0.19,0.06   C24.13,19.99,24.06,20,24,20z"/></g><g><path d="M28,20c-0.07,0-0.13-0.01-0.2-0.02c-0.06-0.01-0.12-0.03-0.19-0.06c-0.06-0.02-0.11-0.05-0.17-0.09   c-0.05-0.04-0.1-0.08-0.15-0.13c-0.09-0.09-0.16-0.2-0.22-0.32C27.02,19.26,27,19.13,27,19c0-0.13,0.02-0.26,0.07-0.38   c0.06-0.13,0.13-0.24,0.22-0.33c0.27-0.28,0.72-0.37,1.09-0.22c0.12,0.05,0.23,0.13,0.33,0.22C28.89,18.48,29,18.74,29,19   c0,0.26-0.11,0.52-0.29,0.7c-0.1,0.1-0.21,0.17-0.33,0.22C28.26,19.97,28.13,20,28,20z"/></g><g><path d="M20.308,19.087c-0.262,0-0.517-0.103-0.707-0.293l-1.369-1.368c-1.103,0.515-2.458,0.322-3.361-0.582   c-0.564-0.564-0.873-1.313-0.871-2.11c0.002-0.792,0.313-1.534,0.875-2.088c0.506-0.513,1.182-0.818,1.91-0.861   c0.043-0.729,0.348-1.405,0.87-1.919C18.2,9.313,18.942,9.002,19.734,9c0.003,0,0.006,0,0.01,0c0.793,0,1.539,0.309,2.101,0.871   c0.903,0.903,1.098,2.259,0.582,3.361l1.018,1.019c0.214,0.214,0.319,0.512,0.288,0.813c-0.032,0.3-0.198,0.57-0.452,0.734   c-0.938,0.606-1.658,1.534-2.026,2.613c-0.111,0.327-0.383,0.573-0.72,0.651C20.459,19.079,20.383,19.087,20.308,19.087z    M18.357,15.138c0.256,0,0.512,0.098,0.707,0.293l0.945,0.945c0.337-0.557,0.75-1.065,1.224-1.508l-0.803-0.803   c-0.389-0.389-0.391-1.018-0.005-1.409c0.376-0.382,0.379-0.997,0.005-1.371C20.247,11.101,20.003,11,19.744,11   c-0.001,0-0.002,0-0.003,0c-0.255,0.001-0.494,0.101-0.672,0.28c-0.188,0.187-0.288,0.425-0.289,0.68   c-0.001,0.26,0.1,0.505,0.285,0.69c0.195,0.195,0.293,0.451,0.293,0.707s-0.098,0.512-0.293,0.707   c-0.391,0.391-1.023,0.391-1.414,0c-0.184-0.184-0.399-0.27-0.69-0.285c-0.255,0.001-0.494,0.101-0.671,0.28   c-0.189,0.187-0.289,0.426-0.29,0.681c0,0.261,0.101,0.505,0.285,0.69c0.374,0.374,0.988,0.373,1.371-0.005   C17.85,15.234,18.104,15.138,18.357,15.138z"/></g><g><path d="M32.251,32.995c-0.793,0-1.539-0.309-2.101-0.87c-0.903-0.904-1.097-2.26-0.582-3.362l-0.279-0.278   c-0.187-0.188-0.292-0.442-0.292-0.707v-3.32c0-0.284,0.121-0.555,0.332-0.744c0.327-0.294,0.616-0.633,0.857-1.007   c0.164-0.254,0.434-0.421,0.734-0.453c0.304-0.035,0.6,0.074,0.813,0.287l2.029,2.028c1.102-0.517,2.458-0.323,3.361,0.582   c0.564,0.564,0.873,1.314,0.871,2.111c-0.003,0.79-0.312,1.529-0.871,2.083c-0.514,0.519-1.188,0.822-1.915,0.865   c-0.043,0.728-0.348,1.404-0.87,1.919c-0.546,0.553-1.288,0.863-2.08,0.866C32.257,32.995,32.254,32.995,32.251,32.995z    M30.998,27.363l0.567,0.567c0.388,0.389,0.39,1.019,0.004,1.409c-0.376,0.382-0.378,0.997-0.004,1.371   c0.183,0.184,0.427,0.284,0.686,0.284c0.001,0,0.002,0,0.003,0c0.256-0.001,0.494-0.101,0.672-0.28   c0.188-0.187,0.288-0.425,0.289-0.681c0-0.261-0.101-0.505-0.285-0.689c-0.195-0.195-0.293-0.451-0.293-0.707   s0.098-0.512,0.292-0.707c0.391-0.391,1.024-0.391,1.415,0c0.184,0.184,0.427,0.284,0.687,0.284c0.001,0,0.002,0,0.003,0   c0.255-0.001,0.494-0.101,0.671-0.279c0.003-0.004,0.006-0.007,0.009-0.01c0.179-0.177,0.279-0.415,0.28-0.671   c0.001-0.261-0.101-0.506-0.285-0.69c-0.373-0.375-0.988-0.371-1.37,0.005c-0.39,0.387-1.02,0.384-1.409-0.005l-1.811-1.81   c-0.041,0.043-0.081,0.086-0.123,0.129V27.363z"/></g><g><path d="M19.744,32.995c-0.003,0-0.006,0-0.01,0c-0.792-0.003-1.534-0.313-2.088-0.874c-0.513-0.508-0.818-1.184-0.861-1.911   c-0.728-0.043-1.404-0.349-1.919-0.87c-0.552-0.544-0.863-1.286-0.866-2.078c-0.002-0.797,0.306-1.547,0.87-2.111   c0.904-0.903,2.26-1.098,3.362-0.582l2.029-2.028c0.214-0.214,0.513-0.321,0.814-0.287c0.301,0.032,0.57,0.199,0.734,0.453   c0.24,0.374,0.529,0.712,0.857,1.007c0.211,0.189,0.332,0.46,0.332,0.744v3.32c0,0.265-0.105,0.52-0.292,0.707l-0.279,0.278   c0.516,1.103,0.322,2.458-0.581,3.362C21.283,32.687,20.538,32.995,19.744,32.995z M19.357,28.638c0,0.256-0.098,0.512-0.293,0.707   c-0.184,0.185-0.285,0.429-0.285,0.689c0.001,0.256,0.101,0.494,0.28,0.673c0.187,0.188,0.425,0.287,0.681,0.288   c0.001,0,0.002,0,0.003,0c0.259,0,0.503-0.101,0.687-0.284c0.374-0.374,0.372-0.989-0.004-1.371   c-0.386-0.391-0.384-1.021,0.004-1.409l0.567-0.567v-2.48c-0.042-0.042-0.082-0.085-0.123-0.129l-1.811,1.81   c-0.389,0.389-1.018,0.392-1.409,0.005c-0.382-0.377-0.997-0.379-1.371-0.005c-0.184,0.185-0.286,0.43-0.285,0.69   c0.001,0.256,0.101,0.494,0.28,0.671c0.187,0.189,0.426,0.249,0.684,0.289c0.259,0,0.503-0.101,0.687-0.284   c0.391-0.391,1.024-0.391,1.415,0C19.26,28.126,19.357,28.382,19.357,28.638z M21.998,27.777h0.01H21.998z"/></g><g><path d="M31.688,19.087c-0.075,0-0.151-0.008-0.227-0.026c-0.336-0.078-0.608-0.325-0.72-0.651   c-0.368-1.079-1.087-2.006-2.026-2.613c-0.254-0.164-0.42-0.434-0.452-0.734c-0.032-0.301,0.074-0.6,0.288-0.813l1.019-1.019   c-0.516-1.103-0.322-2.458,0.582-3.361C30.712,9.309,31.458,9,32.251,9c0.003,0,0.006,0,0.01,0   c0.792,0.002,1.534,0.313,2.088,0.875c0.513,0.506,0.818,1.182,0.861,1.91c0.729,0.043,1.405,0.348,1.919,0.87   c0.552,0.545,0.863,1.287,0.866,2.079c0.002,0.797-0.307,1.546-0.871,2.11c-0.903,0.904-2.259,1.097-3.361,0.582l-1.369,1.368   C32.205,18.984,31.95,19.087,31.688,19.087z M30.761,14.868c0.474,0.442,0.887,0.951,1.224,1.508l0.945-0.945   c0.39-0.389,1.019-0.389,1.409-0.005c0.382,0.378,0.997,0.379,1.371,0.005c0.184-0.185,0.285-0.429,0.285-0.69   c-0.001-0.255-0.101-0.494-0.28-0.672c-0.187-0.188-0.425-0.288-0.68-0.289c-0.001,0-0.002,0-0.003,0   c-0.259,0-0.503,0.101-0.687,0.285c-0.391,0.391-1.023,0.391-1.414,0c-0.195-0.195-0.293-0.451-0.293-0.707   s0.098-0.512,0.293-0.707c0.185-0.185,0.286-0.43,0.285-0.69c-0.001-0.255-0.101-0.494-0.28-0.671   c-0.187-0.189-0.426-0.289-0.681-0.29c-0.001,0-0.002,0-0.003,0c-0.259,0-0.503,0.101-0.687,0.285   c-0.374,0.374-0.372,0.989,0.005,1.371c0.386,0.391,0.384,1.021-0.005,1.409L30.761,14.868z"/></g><g><path d="M41,40H11c-0.552,0-1-0.447-1-1V1c0-0.552,0.448-1,1-1h30c0.552,0,1,0.448,1,1v38C42,39.553,41.552,40,41,40z M12,38h28V2   H12V38z"/></g><g><path d="M7,44c-0.552,0-1-0.447-1-1V5c0-2.757,2.243-5,5-5c0.552,0,1,0.448,1,1v38c0,0.553-0.448,1-1,1c-1.654,0-3,1.346-3,3   C8,43.553,7.552,44,7,44z M10,2.171C8.836,2.584,8,3.696,8,5v34.002c0.582-0.438,1.262-0.751,2-0.901V2.171z"/></g><g><path d="M41,48H11c-2.288,0-4.277-1.544-4.839-3.754C6.055,43.869,6,43.454,6,43c0-2.757,2.243-5,5-5h30c0.552,0,1,0.447,1,1   s-0.448,1-1,1c-1.654,0-3,1.346-3,3s1.346,3,3,3c0.552,0,1,0.447,1,1S41.552,48,41,48z M11,40c-1.654,0-3,1.346-3,3   c0,0.269,0.03,0.508,0.093,0.729C8.436,45.076,9.628,46,11,46h26.002C36.374,45.164,36,44.125,36,43s0.374-2.164,1.002-3H11z"/></g><g><path d="M33,44H12c-0.552,0-1-0.447-1-1s0.448-1,1-1h21c0.552,0,1,0.447,1,1S33.552,44,33,44z"/></g><text x="0" y="63" fill="#000000" font-size="5px" font-weight="bold" font-family="'Helvetica Neue', Helvetica, Arial-Unicode, Arial, Sans-serif">Created by AmruID</text><text x="0" y="68" fill="#000000" font-size="5px" font-weight="bold" font-family="'Helvetica Neue', Helvetica, Arial-Unicode, Arial, Sans-serif">from the Noun Project</text></svg>