<svg xmlns="http://www.w3.org/2000/svg" viewBox="0 0 2107.68 2001.39"><defs><style>.cls-1{fill:#b36262;}.cls-2{fill:#fff;}</style></defs><title>Group</title><g id="Layer_2" data-name="Layer 2"><g id="Layer_1-2" data-name="Layer 1"><ellipse class="cls-1" cx="1469.06" cy="722.49" rx="190.89" ry="188.75"/><path class="cls-1" d="M1469.07,951.42a233.33,233.33,0,0,1-98.89-26.84c-25.79-13.6-22.15-17.79-34.19-21-67.12-18.13-151.18,119.66-160.94,135.65-6.62,10.86-30.8,51.47-50.61,112.66a606,606,0,0,0-28.59,158.21l755.19,1.61c.48-40.65-3.57-110.27-34.79-187.4-18-44.52-38-74-51.49-93.66-35.46-51.68-95.77-139.58-152.3-129-25.63,4.8-26.07,25.27-69.89,40.61C1512,952.95,1486.13,952.13,1469.07,951.42Z"/><path class="cls-2" d="M1085.66,1073.53a231.69,231.69,0,0,1-98.89-27.08c-25.79-13.73-22.15-17.95-34.19-21.23-67.12-18.3-151.18,120.73-160.94,136.87C785,1173,760.84,1214,741,1275.76a616.31,616.31,0,0,0-28.59,159.63l755.19,1.63c.48-41-3.57-111.26-34.79-189.07-18-44.92-38-74.67-51.49-94.5-35.46-52.14-95.77-140.83-152.3-130.13-25.63,4.85-26.07,25.5-69.89,41C1128.6,1075.07,1102.72,1074.24,1085.66,1073.53Z"/><ellipse class="cls-1" cx="652.82" cy="715.41" rx="190.89" ry="188.75"/><path class="cls-1" d="M652.83,944.34a233.33,233.33,0,0,1-98.89-26.84c-25.79-13.6-22.15-17.79-34.19-21-67.12-18.13-151.18,119.66-160.94,135.65-6.62,10.86-30.8,51.47-50.61,112.66A606,606,0,0,0,279.62,1303l755.19,1.61c.48-40.65-3.57-110.27-34.79-187.4-18-44.52-38-74-51.49-93.66-35.46-51.68-95.77-139.58-152.3-129-25.63,4.8-26.07,25.27-69.89,40.61C695.77,945.87,669.9,945,652.83,944.34Z"/><path class="cls-2" d="M1046.48,1076.3a233.09,233.09,0,0,1-98.89-26.87c-25.79-13.62-22.15-17.81-34.19-21.07-67.12-18.16-151.18,119.81-160.94,135.82-6.62,10.87-30.8,51.54-50.61,112.8a607.4,607.4,0,0,0-28.59,158.41l755.19,1.61c.48-40.7-3.57-110.41-34.79-187.63-18-44.58-38-74.11-51.49-93.78-35.46-51.74-95.77-139.75-152.3-129.14-25.63,4.81-26.07,25.3-69.89,40.66C1089.42,1077.83,1063.54,1077,1046.48,1076.3Z"/><path d="M1053.83,2001.39C472.74,2001.39,0,1552.47,0,1000.68S472.74,0,1053.83,0,2107.68,448.9,2107.68,1000.68,1634.95,2001.39,1053.83,2001.39Zm0-1919.06c-531.55,0-964,412-964,918.36s432.45,918.38,964,918.38,964-412,964-918.38S1585.38,82.32,1053.83,82.32Z"/><ellipse class="cls-1" cx="1070.14" cy="847.31" rx="190.89" ry="188.75"/><path class="cls-1" d="M1070.15,1076.24a233.33,233.33,0,0,1-98.89-26.84c-25.79-13.6-22.15-17.79-34.19-21C870,1010.22,785.9,1148,776.14,1164c-6.62,10.86-30.8,51.47-50.61,112.66a606,606,0,0,0-28.59,158.21l755.19,1.61c.48-40.65-3.57-110.27-34.79-187.4-18-44.52-38-74-51.49-93.66-35.46-51.68-95.77-139.58-152.3-129-25.63,4.8-26.07,25.27-69.89,40.61C1113.09,1077.77,1087.22,1076.94,1070.15,1076.24Z"/></g></g></svg>