<svg xmlns="http://www.w3.org/2000/svg" viewBox="0 0 1965.84 1950.99"><defs><style>.cls-1{fill:#3d4766;}</style></defs><title>Person</title><g id="Layer_2" data-name="Layer 2"><g id="Layer_1-2" data-name="Layer 1"><path d="M982.91,1951C440.92,1951,0,1513.38,0,975.49S440.92,0,982.91,0s982.93,437.6,982.93,975.49S1524.92,1951,982.91,1951Zm0-1870.74c-495.78,0-899.13,401.61-899.13,895.24s403.35,895.26,899.13,895.26,899.15-401.61,899.15-895.26S1478.69,80.25,982.91,80.25Z"/><ellipse class="cls-1" cx="982.92" cy="622.76" rx="286.64" ry="294.39"/><path class="cls-1" d="M982.93,979.8a340.07,340.07,0,0,1-148.49-41.86c-38.72-21.22-33.25-27.74-51.34-32.82-100.78-28.28-227,186.63-241.66,211.57-9.95,16.93-46.26,80.28-76,175.71a978.11,978.11,0,0,0-42.93,246.75l1134,2.51c.72-63.4-5.36-172-52.25-292.27C1477.2,1180,1447.2,1134,1427,1103.32c-53.24-80.6-143.81-217.69-228.7-201.16-38.48,7.49-39.15,39.41-104.94,63.34C1047.41,982.19,1008.56,980.9,982.93,979.8Z"/></g></g></svg>